<svg id="visual" viewBox="0 0 900 600" style="transform:rotate(180deg);margin-left:-100px;" width="1200" height="600" xmlns="http://www.w3.org/2000/svg" xmlns:xlink="http://www.w3.org/1999/xlink" version="1.1"><path d="M483 600L391 600L391 514L504 514L504 429L369 429L369 343L497 343L497 257L485 257L485 171L468 171L468 86L516 86L516 0L900 0L900 86L900 86L900 171L900 171L900 257L900 257L900 343L900 343L900 429L900 429L900 514L900 514L900 600L900 600Z" fill="#290909"></path><path d="M664 600L504 600L504 514L643 514L643 429L670 429L670 343L548 343L548 257L498 257L498 171L514 171L514 86L567 86L567 0L900 0L900 86L900 86L900 171L900 171L900 257L900 257L900 343L900 343L900 429L900 429L900 514L900 514L900 600L900 600Z" fill="#3f1315"></path><path d="M646 600L788 600L788 514L690 514L690 429L738 429L738 343L634 343L634 257L659 257L659 171L674 171L674 86L746 86L746 0L900 0L900 86L900 86L900 171L900 171L900 257L900 257L900 343L900 343L900 429L900 429L900 514L900 514L900 600L900 600Z" fill="#561d1d"></path></svg>